<?xml version="1.0" encoding="UTF-8"?>
<svg xmlns="http://www.w3.org/2000/svg" xmlns:xlink="http://www.w3.org/1999/xlink" width="2001" height="2001" viewBox="0 0 2001 2001">
<path fill-rule="evenodd" fill="rgb(97.65625%, 68.943787%, 13.719177%)" fill-opacity="1" d="M 867.949219 886.980469 C 880.253906 884.308594 894.808594 892.910156 898.628906 909.21875 C 901.75 922.539062 889.90625 938.769531 876.324219 940.441406 C 867.113281 941.570312 861.171875 939.089844 855.433594 934.808594 C 851.597656 931.949219 845.996094 924.960938 845.246094 917.75 C 844.339844 908.949219 846.265625 903.128906 850.742188 897.289062 C 854.746094 892.070312 859.210938 888.871094 867.949219 886.980469 Z M 959.785156 820.898438 C 975.351562 816.769531 989.785156 830.011719 992.191406 842.089844 C 996.917969 865.808594 968.730469 883.960938 949.710938 869.039062 C 929.765625 853.378906 938.472656 826.550781 959.785156 820.898438 Z M 907.761719 738.210938 C 922.777344 735.230469 936.957031 747.578125 938.421875 760.199219 C 939.585938 770.230469 936.789062 775.398438 932.503906 781.480469 C 926.460938 790.050781 914.171875 792.941406 903.40625 790.339844 C 893.058594 787.839844 874.925781 767.441406 890.769531 747.871094 C 895.863281 741.578125 900.628906 739.628906 907.761719 738.210938 Z M 701.003906 969.75 C 708.125 971.410156 1117.488281 969.78125 1149.070312 969.621094 C 1149.691406 967.449219 1145.449219 961.648438 1143.179688 958.011719 L 1119.328125 917.339844 C 1115.199219 911.058594 1111.339844 903.460938 1107.191406 896.890625 L 1094.878906 875.949219 C 1092.558594 872.089844 1090.101562 868.25 1088.109375 864.371094 L 1057.269531 811.699219 C 1052.671875 804.578125 1043.730469 789.179688 1039.898438 782.238281 L 1022.980469 753.671875 C 1019.359375 748.230469 1001.921875 718.011719 998.574219 712.210938 L 972.757812 668.109375 C 967.21875 659.859375 958.042969 642.378906 952.1875 632.988281 L 936.496094 606.578125 C 934.59375 603.800781 934.746094 603.46875 932.300781 601.25 C 925.628906 595.171875 918.957031 598.480469 914.21875 605.671875 C 911.566406 609.679688 909.988281 612.808594 907.367188 617.128906 L 886.671875 652.101562 C 878.140625 666.058594 866.84375 687.300781 858.996094 699.101562 C 854.191406 706.320312 843.652344 725.5 838.171875 734.660156 C 835.726562 738.738281 833.652344 742.109375 831.277344 746.070312 L 827.890625 752.21875 C 826.660156 754.53125 825.660156 755.808594 824.378906 758.21875 L 810.523438 781.691406 C 805.5625 789.570312 801.585938 796.929688 796.96875 804.808594 L 783.042969 828.230469 C 780.796875 832.261719 778.550781 835.738281 776.34375 839.839844 L 764.289062 860.371094 C 752.949219 880.558594 739.558594 901.800781 727.789062 922.328125 L 705.351562 960.320312 C 702.890625 964.558594 700.585938 967.210938 701.003906 969.75 "/>
<path fill-rule="evenodd" fill="rgb(97.65625%, 68.943787%, 13.719177%)" fill-opacity="1" d="M 1244.46875 850.230469 C 1252.671875 848.488281 1260.570312 850.109375 1266.230469 854.609375 C 1295.589844 877.988281 1263.878906 916.898438 1235.421875 898.339844 C 1216.339844 885.898438 1222.421875 854.898438 1244.46875 850.230469 Z M 1283.378906 730.808594 C 1298.179688 728.210938 1312.460938 740.609375 1313.828125 753.378906 C 1316.640625 779.789062 1288.5 793.140625 1270.480469 778.398438 C 1252.378906 763.589844 1259.980469 734.921875 1283.378906 730.808594 Z M 1089.820312 776.480469 C 1090.121094 778.519531 1102.269531 797.949219 1103.699219 800.558594 C 1112.800781 817.25 1128.71875 843.109375 1139.199219 860.800781 L 1203.820312 969.980469 C 1210.359375 970.738281 1325.898438 970.191406 1340.960938 970.191406 C 1356.660156 970.191406 1352.691406 971.171875 1352.691406 955.058594 C 1352.691406 936.859375 1352.980469 917.46875 1352.410156 899.371094 C 1351.851562 882.039062 1351.871094 862.839844 1351.878906 845.058594 C 1351.890625 781.730469 1349.28125 716.890625 1349.429688 654.261719 C 1349.441406 647.789062 1350.390625 637.058594 1338.238281 637.121094 C 1333.488281 637.140625 1331.371094 639.121094 1328.019531 640.648438 C 1325.820312 641.648438 1325.75 642.140625 1323.808594 643.21875 C 1322.921875 643.71875 1322.390625 643.820312 1321.488281 644.300781 C 1319.828125 645.179688 1320.660156 644.910156 1319.039062 645.921875 L 1308.21875 652.070312 C 1307.410156 652.550781 1306.828125 652.75 1305.960938 653.199219 C 1295.109375 658.851562 1269.320312 673.800781 1257.351562 680.628906 L 1230.660156 696.019531 C 1228.109375 697.621094 1224.800781 699.160156 1221.871094 700.828125 C 1219.699219 702.070312 1219.910156 702.328125 1217.660156 703.390625 L 1107.089844 765.980469 C 1102.851562 768.238281 1092.390625 773.488281 1089.820312 776.480469 "/>
<path fill-rule="evenodd" fill="rgb(97.65625%, 68.943787%, 13.719177%)" fill-opacity="1" d="M 549.84375 541.890625 C 562.21875 539.519531 577.070312 549.058594 579.953125 565.371094 C 581.261719 572.769531 577.933594 580.691406 574.164062 585.339844 C 558.984375 604.101562 529.253906 595.191406 526.757812 571.601562 C 525.078125 555.71875 535.769531 544.578125 549.84375 541.890625 Z M 488.65625 839.101562 C 491.492188 838.308594 489.738281 839.789062 491.398438 836.601562 C 492.261719 834.949219 492.390625 834.621094 493.253906 833.070312 L 515.777344 794.46875 C 517.097656 792.25 518.660156 789.800781 519.894531 787.71875 L 556.152344 726.210938 C 556.96875 724.890625 557.214844 724.058594 558.058594 722.691406 L 565.664062 709.949219 C 568.578125 704.269531 577.3125 690.488281 581.023438 683.859375 L 603.949219 645.03125 C 611.175781 632.878906 618.304688 619.398438 633.558594 612.871094 C 637.996094 610.980469 643.320312 608.609375 648.691406 607.640625 C 661.34375 605.359375 673.765625 607.558594 684.769531 612.550781 C 695.746094 617.519531 705.96875 627.320312 711.011719 637.890625 C 712.824219 641.691406 729.703125 670.21875 734.109375 677.269531 C 735.429688 679.378906 736.570312 681.570312 737.769531 683.808594 C 739.101562 686.289062 739.832031 687.5 741.472656 690.269531 L 752.980469 709.988281 C 755.546875 714.371094 758.058594 718.710938 760.753906 723.28125 C 763.246094 727.5 765.601562 731.828125 768.140625 736.261719 C 772.578125 744 771.117188 741.871094 777.792969 748.089844 C 778.6875 746.761719 778.425781 746.820312 779.269531 744.988281 C 781.265625 740.648438 811.988281 689.960938 817.359375 680.550781 L 840.335938 638.878906 L 803.488281 618.058594 C 794.660156 612.441406 776.046875 603.019531 766.179688 597.011719 C 763.191406 595.191406 760.164062 593.890625 756.929688 591.988281 L 678.433594 547.601562 C 670.476562 543.75 655.671875 534.371094 645.773438 529.328125 C 642.585938 527.699219 639.484375 525.378906 636.355469 523.828125 L 543.316406 471.558594 C 540.128906 469.511719 509.105469 451.988281 505.964844 451.171875 C 495.421875 448.429688 491.648438 454.71875 491.234375 464.25 C 490.828125 473.640625 491.167969 483.859375 491.183594 493.339844 C 491.300781 569.859375 488.730469 646.839844 488.738281 723.519531 C 488.738281 730.980469 487.703125 835.011719 488.65625 839.101562 "/>
<path fill-rule="evenodd" fill="rgb(97.65625%, 68.943787%, 13.719177%)" fill-opacity="1" d="M 923.546875 455.140625 C 931.4375 452.800781 939.742188 456.328125 944.6875 459.871094 C 950.289062 463.878906 953.109375 469.039062 955.230469 475.839844 C 957.597656 483.421875 954.234375 491.949219 950.832031 496.949219 C 936.722656 517.660156 906.894531 508.351562 902.460938 487.789062 C 898.929688 471.421875 909.195312 459.390625 923.546875 455.140625 Z M 873.210938 431.75 C 851.175781 431.75 841.59375 407.351562 849.328125 393.421875 C 853.167969 386.511719 856.101562 383.871094 862.8125 380.421875 C 871.546875 375.921875 884.710938 378.511719 892.472656 385.789062 C 907.941406 400.320312 899.996094 431.75 873.210938 431.75 Z M 864.941406 599.058594 C 878.390625 579.359375 875.496094 574.429688 896.78125 561.070312 C 899.640625 559.269531 900.78125 559.191406 903.714844 557.789062 C 924.109375 548.070312 954.476562 556.160156 969.242188 573.808594 C 970.425781 575.21875 971.636719 579.210938 974.246094 578.871094 C 975.742188 578.679688 978.589844 575.019531 979.671875 574.019531 C 988.152344 566.269531 996.664062 558.539062 1005.261719 549.359375 L 1025.589844 529.628906 C 1030.398438 525.019531 1026.929688 523.691406 1025.328125 520.429688 C 1024.371094 518.460938 1024.578125 518.679688 1023.398438 516.941406 L 1000.988281 478.921875 C 999.878906 476.859375 998.738281 475.03125 997.480469 472.929688 L 956.367188 403.378906 C 952.238281 395.128906 946.199219 386.101562 941.523438 378.140625 C 928.746094 356.398438 913.050781 330.390625 900.90625 308.78125 L 889.839844 289.96875 C 884.640625 280.199219 874.042969 277.199219 866.714844 289.910156 C 859.003906 303.289062 849.390625 318.421875 842.648438 331.058594 L 829.46875 353.171875 C 811.585938 382.671875 793.492188 414.488281 775.984375 444.328125 C 774.953125 446.089844 774.886719 445.5 773.808594 447.550781 C 764.71875 464.910156 749.988281 486.921875 740.410156 504.460938 C 728.355469 526.550781 724.195312 521.171875 742.257812 531.28125 L 755.378906 538.550781 C 760.074219 540.921875 765.359375 544.558594 771.039062 547.328125 L 813.128906 571.101562 C 821.710938 575.25 858.886719 598.539062 864.941406 599.058594 "/>
<path fill-rule="evenodd" fill="rgb(97.65625%, 68.943787%, 13.719177%)" fill-opacity="1" d="M 601.996094 860.628906 C 609.65625 858.570312 617.507812 862.269531 622.546875 865.578125 C 634.402344 873.359375 636.328125 892.851562 627.601562 903.601562 C 624.191406 907.800781 617.820312 913 611.167969 913.621094 C 607.710938 913.941406 601.304688 914.019531 598.308594 912.890625 C 579.519531 905.839844 574.171875 885.101562 585.175781 870.679688 C 589.640625 864.828125 593.675781 862.859375 601.996094 860.628906 Z M 466.394531 969.460938 C 470.128906 971.320312 621.664062 970.089844 646.554688 969.96875 C 649.527344 966.089844 656.066406 954.730469 658.613281 950.21875 L 705.847656 869.808594 C 707.035156 867.789062 707.519531 866.789062 708.632812 865.140625 C 712.980469 858.691406 724.355469 837.691406 729.496094 829.660156 C 734.535156 821.789062 741.433594 808.21875 747.097656 799.730469 C 751.484375 793.140625 747.867188 792.921875 743.035156 783.800781 L 728.296875 758.460938 C 726.183594 754.671875 724.175781 751.628906 722.367188 748.070312 C 719.542969 742.511719 713.46875 733.378906 710.59375 727.949219 C 708.691406 724.359375 706.882812 721.308594 704.890625 718.050781 C 697.28125 705.570312 689.097656 689.890625 681.480469 677.628906 C 674.480469 666.359375 664.460938 638.371094 649.257812 657.738281 L 625.539062 697.828125 C 624.722656 699.261719 623.632812 701.320312 622.542969 702.988281 C 621.09375 705.199219 620.726562 706.238281 619.574219 708.179688 L 572.238281 788.480469 C 567.046875 797.570312 559.617188 809.171875 554.609375 818.371094 C 552.644531 821.96875 550.359375 825.058594 548.53125 828.601562 C 545.019531 835.410156 540.363281 841.980469 536.714844 848.679688 C 529.425781 862.078125 520.710938 875.21875 513.039062 888.839844 C 505.289062 902.601562 497.46875 915.601562 489.367188 928.988281 C 488.75 930.011719 488.714844 930.328125 488.238281 931.261719 L 471.597656 959.410156 C 470.160156 961.71875 466.011719 967.808594 466.394531 969.460938 "/>
<path fill-rule="evenodd" fill="rgb(97.65625%, 68.943787%, 13.719177%)" fill-opacity="1" d="M 1103.359375 595.609375 C 1111.160156 593.050781 1120.28125 595.519531 1125.671875 599.328125 C 1130.050781 602.429688 1135.628906 608.238281 1136.761719 614.710938 C 1139.480469 630.421875 1132.421875 643.398438 1117.609375 647.480469 C 1109.910156 649.601562 1102.570312 648.179688 1096.441406 644.191406 C 1077.101562 631.621094 1080.808594 603.019531 1103.359375 595.609375 Z M 1184.988281 523.761719 C 1192.078125 521.308594 1202.019531 523.78125 1207.03125 527.46875 C 1211.570312 530.820312 1216.621094 535.800781 1217.980469 542.96875 C 1223.601562 572.390625 1193.128906 583.929688 1177.25 572.179688 C 1157.871094 557.839844 1162.878906 531.378906 1184.988281 523.761719 Z M 1065.070312 735.96875 C 1068.699219 735.960938 1069.53125 734.800781 1071.859375 733.410156 C 1074.378906 731.910156 1075.378906 731.199219 1077.890625 729.980469 C 1082.160156 727.898438 1085.730469 725.578125 1090.109375 723.191406 L 1137.808594 696.199219 C 1144.980469 691.898438 1154.019531 686.648438 1161.570312 682.609375 C 1166.300781 680.078125 1186.828125 668.859375 1191.160156 666.03125 C 1192.769531 664.980469 1191.960938 665.25 1194.089844 664.210938 C 1199.960938 661.308594 1208.359375 656.03125 1214.960938 652.488281 L 1269.199219 621.851562 C 1280.628906 615.960938 1277.390625 618.480469 1271.789062 597.761719 L 1239.320312 480.191406 C 1236.410156 472.308594 1231.628906 449.058594 1227.121094 436.101562 C 1224.261719 427.878906 1224.269531 412.890625 1209.980469 415.230469 C 1204.558594 416.121094 1194.691406 427.710938 1189.828125 432.488281 C 1183.378906 438.839844 1177.328125 444.511719 1170.859375 450.871094 C 1163.691406 457.898438 1148.238281 472.28125 1142.589844 478.261719 C 1139.46875 481.550781 1136 485.320312 1133.191406 487.859375 C 1109.5 509.300781 1081.199219 539.398438 1057.308594 562.039062 C 1050.351562 568.640625 1035.761719 584.128906 1029.261719 589.660156 C 1025.558594 592.820312 1023.109375 595.78125 1019.550781 598.980469 C 1016.960938 601.300781 1014.199219 604.058594 1010.328125 608.070312 C 996.722656 622.210938 995.785156 617.828125 1002.75 629.261719 C 1005.179688 633.238281 1007.378906 637.238281 1009.871094 641.148438 C 1010.890625 642.738281 1012.308594 645.210938 1013.148438 646.691406 C 1019.53125 657.949219 1028.308594 671.839844 1033.980469 682.21875 C 1039.878906 693.019531 1063.371094 730.988281 1065.070312 735.96875 "/>
<path fill-rule="evenodd" fill="rgb(97.65625%, 68.943787%, 13.719177%)" fill-opacity="1" d="M 369.085938 721.359375 C 385.476562 718.140625 399.410156 729.058594 401.472656 741.03125 C 407.953125 778.621094 357.042969 786 349.390625 753.820312 C 347.199219 744.609375 349.121094 739.691406 353.140625 732.28125 C 355.257812 728.378906 362.453125 722.671875 369.085938 721.359375 Z M 359.976562 970.191406 C 371.347656 970.199219 403.296875 970.710938 412.414062 970 C 417.335938 962.480469 423.476562 952.171875 428.03125 943.679688 L 437.863281 927.03125 C 440.824219 922.320312 441.945312 921.621094 441.980469 915.03125 C 442.375 842.578125 443.320312 770.21875 443.320312 697.71875 C 443.320312 690.109375 438.195312 692.730469 432.242188 690.640625 C 427.441406 688.960938 422.183594 687.75 417.367188 686.480469 C 413.039062 685.339844 376.195312 676.480469 371.875 674.929688 L 356.84375 671.011719 C 347.527344 668.980469 321.125 662.179688 311.976562 659.460938 C 309.425781 658.699219 306.960938 658.699219 304.113281 657.859375 C 296.9375 655.730469 287.101562 651.679688 281.792969 656.871094 C 278.070312 660.511719 277.300781 665.269531 279.230469 671.890625 C 280.636719 676.699219 281.808594 682.160156 283.355469 686.761719 L 290.964844 717.171875 C 291.847656 720.820312 293.746094 728.359375 295.039062 732.089844 C 295.957031 734.738281 296.222656 736.640625 296.738281 739.238281 C 297.3125 742.140625 298.296875 743.921875 298.960938 746.578125 C 300.242188 751.699219 301.632812 756.71875 302.605469 761.929688 C 303.128906 764.71875 304.28125 766.828125 304.878906 769.109375 C 305.582031 771.789062 305.628906 774.160156 306.539062 776.980469 C 311.328125 791.679688 314.3125 808.921875 318.246094 822.28125 L 332.152344 874.289062 C 333.40625 880.519531 347.191406 934.039062 349.703125 942.269531 L 353.503906 957.398438 C 354.128906 960.851562 354.765625 962.058594 355.519531 964.941406 C 356.644531 969.21875 355.375 970.191406 359.976562 970.191406 "/>
<path fill-rule="evenodd" fill="rgb(97.65625%, 68.943787%, 13.719177%)" fill-opacity="1" d="M 1472.25 528.558594 C 1488.371094 525.460938 1500.859375 535.828125 1503.441406 549.410156 C 1508.488281 575.941406 1477.878906 589.730469 1461.191406 576.101562 C 1456.128906 571.96875 1451.871094 566.808594 1451 559.839844 C 1449.980469 551.589844 1451.441406 544.25 1455.558594 538.710938 C 1460.589844 531.941406 1465.421875 529.878906 1472.25 528.558594 Z M 1318.550781 593.929688 C 1322.78125 595.421875 1328.910156 589.648438 1346.289062 592.53125 C 1365.308594 595.691406 1383.46875 609.878906 1390.839844 627.449219 L 1395.070312 639.238281 C 1397.261719 638.71875 1407 629.589844 1410.199219 627.089844 C 1411.839844 625.808594 1413.808594 623.800781 1415.328125 622.75 C 1424.019531 616.738281 1428.820312 614.441406 1441.289062 612.050781 C 1462.800781 607.929688 1485.511719 620.769531 1494.269531 631.960938 C 1498.210938 636.988281 1498.410156 637.148438 1501.738281 642.828125 C 1504.28125 647.148438 1505.140625 651.339844 1506.359375 656.570312 C 1509.25 668.96875 1512.839844 680.71875 1515.070312 693.351562 L 1520.578125 715.691406 C 1521.558594 721.328125 1522.988281 724.988281 1523.910156 730.621094 C 1524.75 735.738281 1526.578125 740.5 1528.328125 745.328125 C 1529.191406 744.050781 1535.488281 712.570312 1537.328125 706.039062 L 1541.550781 685.789062 C 1543.359375 675.289062 1548.648438 657.019531 1550.460938 645.761719 L 1564.339844 586.378906 C 1565.269531 583.25 1565.28125 579.960938 1566.28125 576.800781 C 1568.609375 569.359375 1573.921875 543.230469 1575.921875 537.558594 C 1577.148438 534.058594 1577.109375 531.191406 1578.269531 527.679688 L 1588.539062 489.03125 C 1590.558594 481.589844 1594.640625 466.789062 1582.488281 464.300781 C 1578.039062 463.390625 1575.871094 464.851562 1572.199219 465.890625 C 1566.03125 467.640625 1558.238281 468.671875 1552.46875 470.609375 C 1540.441406 474.671875 1526.570312 476.679688 1514.328125 480.699219 L 1397.710938 510.671875 C 1392.261719 512.550781 1384.339844 513.679688 1378.5 515.28125 L 1320.089844 530.191406 C 1316.390625 531.128906 1314.910156 531.960938 1310.488281 532.730469 C 1296.171875 535.199219 1304.800781 539.261719 1307.710938 555.800781 C 1308.320312 559.238281 1317.601562 592.640625 1318.550781 593.929688 "/>
<path fill-rule="evenodd" fill="rgb(97.65625%, 68.943787%, 13.719177%)" fill-opacity="1" d="M 1448.859375 842.109375 C 1457.058594 839.800781 1464.898438 843.671875 1470.050781 847 C 1480.160156 853.550781 1485.511719 870.421875 1475.859375 884.25 C 1461.511719 904.808594 1431.25 894.859375 1427.488281 874.050781 C 1424.589844 857.988281 1434.171875 846.238281 1448.859375 842.109375 Z M 1398.648438 955.738281 C 1398.648438 970.699219 1397.199219 970.191406 1404.089844 970.191406 L 1529.011719 970.191406 C 1534.449219 970.191406 1532.890625 967.199219 1531.71875 962.53125 C 1530.871094 959.179688 1529.839844 957.289062 1529.300781 953.429688 L 1524.851562 934.101562 C 1522.480469 926.859375 1520.339844 914.449219 1517.96875 905.679688 L 1511.390625 876.960938 C 1509.921875 867.820312 1503.761719 847.53125 1502.339844 838.410156 L 1491.191406 791.21875 C 1490.140625 787.699219 1490.140625 784.480469 1489.078125 781.101562 C 1487.960938 777.488281 1487.601562 775.628906 1486.910156 771.738281 L 1480.058594 742.589844 C 1475.921875 729.25 1474.601562 716.121094 1471.171875 704.640625 C 1470.101562 701.070312 1469.75 699.320312 1469.019531 695.269531 L 1464.238281 676.210938 C 1463.03125 672.519531 1462.300781 653.398438 1448.949219 656.160156 C 1443.949219 657.199219 1436.011719 665.011719 1431.828125 668.410156 L 1409.238281 687.898438 C 1393.441406 700.351562 1395 697.71875 1396.101562 721.480469 C 1396.800781 736.609375 1396.78125 752.980469 1396.738281 768.339844 C 1396.609375 830.261719 1398.648438 893.710938 1398.648438 955.738281 "/>
<path fill-rule="evenodd" fill="rgb(0%, 0%, 0%)" fill-opacity="1" d="M 959.785156 820.898438 C 938.472656 826.550781 929.765625 853.378906 949.710938 869.039062 C 968.730469 883.960938 996.917969 865.808594 992.191406 842.089844 C 989.785156 830.011719 975.351562 816.769531 959.785156 820.898438 "/>
<path fill-rule="evenodd" fill="rgb(0%, 0%, 0%)" fill-opacity="1" d="M 1448.859375 842.109375 C 1434.171875 846.238281 1424.589844 857.988281 1427.488281 874.050781 C 1431.25 894.859375 1461.511719 904.808594 1475.859375 884.25 C 1485.511719 870.421875 1480.160156 853.550781 1470.050781 847 C 1464.898438 843.671875 1457.058594 839.800781 1448.859375 842.109375 "/>
<path fill-rule="evenodd" fill="rgb(0%, 0%, 0%)" fill-opacity="1" d="M 923.546875 455.140625 C 909.195312 459.390625 898.929688 471.421875 902.460938 487.789062 C 906.894531 508.351562 936.722656 517.660156 950.832031 496.949219 C 954.234375 491.949219 957.597656 483.421875 955.230469 475.839844 C 953.109375 469.039062 950.289062 463.878906 944.6875 459.871094 C 939.742188 456.328125 931.4375 452.800781 923.546875 455.140625 "/>
<path fill-rule="evenodd" fill="rgb(0%, 0%, 0%)" fill-opacity="1" d="M 867.949219 886.980469 C 859.210938 888.871094 854.746094 892.070312 850.742188 897.289062 C 846.265625 903.128906 844.339844 908.949219 845.246094 917.75 C 845.996094 924.960938 851.597656 931.949219 855.433594 934.808594 C 861.171875 939.089844 867.113281 941.570312 876.324219 940.441406 C 889.90625 938.769531 901.75 922.539062 898.628906 909.21875 C 894.808594 892.910156 880.253906 884.308594 867.949219 886.980469 "/>
<path fill-rule="evenodd" fill="rgb(0%, 0%, 0%)" fill-opacity="1" d="M 907.761719 738.210938 C 900.628906 739.628906 895.863281 741.578125 890.769531 747.871094 C 874.925781 767.441406 893.058594 787.839844 903.40625 790.339844 C 914.171875 792.941406 926.460938 790.050781 932.503906 781.480469 C 936.789062 775.398438 939.585938 770.230469 938.421875 760.199219 C 936.957031 747.578125 922.777344 735.230469 907.761719 738.210938 "/>
<path fill-rule="evenodd" fill="rgb(0%, 0%, 0%)" fill-opacity="1" d="M 1283.378906 730.808594 C 1259.980469 734.921875 1252.378906 763.589844 1270.480469 778.398438 C 1288.5 793.140625 1316.640625 779.789062 1313.828125 753.378906 C 1312.460938 740.609375 1298.179688 728.210938 1283.378906 730.808594 "/>
<path fill-rule="evenodd" fill="rgb(0%, 0%, 0%)" fill-opacity="1" d="M 1244.46875 850.230469 C 1222.421875 854.898438 1216.339844 885.898438 1235.421875 898.339844 C 1263.878906 916.898438 1295.589844 877.988281 1266.230469 854.609375 C 1260.570312 850.109375 1252.671875 848.488281 1244.46875 850.230469 "/>
<path fill-rule="evenodd" fill="rgb(0%, 0%, 0%)" fill-opacity="1" d="M 601.996094 860.628906 C 593.675781 862.859375 589.640625 864.828125 585.175781 870.679688 C 574.171875 885.101562 579.519531 905.839844 598.308594 912.890625 C 601.304688 914.019531 607.710938 913.941406 611.167969 913.621094 C 617.820312 913 624.191406 907.800781 627.601562 903.601562 C 636.328125 892.851562 634.402344 873.359375 622.546875 865.578125 C 617.507812 862.269531 609.65625 858.570312 601.996094 860.628906 "/>
<path fill-rule="evenodd" fill="rgb(0%, 0%, 0%)" fill-opacity="1" d="M 1184.988281 523.761719 C 1162.878906 531.378906 1157.871094 557.839844 1177.25 572.179688 C 1193.128906 583.929688 1223.601562 572.390625 1217.980469 542.96875 C 1216.621094 535.800781 1211.570312 530.820312 1207.03125 527.46875 C 1202.019531 523.78125 1192.078125 521.308594 1184.988281 523.761719 "/>
<path fill-rule="evenodd" fill="rgb(0%, 0%, 0%)" fill-opacity="1" d="M 873.210938 431.75 C 899.996094 431.75 907.941406 400.320312 892.472656 385.789062 C 884.710938 378.511719 871.546875 375.921875 862.8125 380.421875 C 856.101562 383.871094 853.167969 386.511719 849.328125 393.421875 C 841.59375 407.351562 851.175781 431.75 873.210938 431.75 "/>
<path fill-rule="evenodd" fill="rgb(0%, 0%, 0%)" fill-opacity="1" d="M 369.085938 721.359375 C 362.453125 722.671875 355.257812 728.378906 353.140625 732.28125 C 349.121094 739.691406 347.199219 744.609375 349.390625 753.820312 C 357.042969 786 407.953125 778.621094 401.472656 741.03125 C 399.410156 729.058594 385.476562 718.140625 369.085938 721.359375 "/>
<path fill-rule="evenodd" fill="rgb(0%, 0%, 0%)" fill-opacity="1" d="M 1103.359375 595.609375 C 1080.808594 603.019531 1077.101562 631.621094 1096.441406 644.191406 C 1102.570312 648.179688 1109.910156 649.601562 1117.609375 647.480469 C 1132.421875 643.398438 1139.480469 630.421875 1136.761719 614.710938 C 1135.628906 608.238281 1130.050781 602.429688 1125.671875 599.328125 C 1120.28125 595.519531 1111.160156 593.050781 1103.359375 595.609375 "/>
<path fill-rule="evenodd" fill="rgb(0%, 0%, 0%)" fill-opacity="1" d="M 1472.25 528.558594 C 1465.421875 529.878906 1460.589844 531.941406 1455.558594 538.710938 C 1451.441406 544.25 1449.980469 551.589844 1451 559.839844 C 1451.871094 566.808594 1456.128906 571.96875 1461.191406 576.101562 C 1477.878906 589.730469 1508.488281 575.941406 1503.441406 549.410156 C 1500.859375 535.828125 1488.371094 525.460938 1472.25 528.558594 "/>
<path fill-rule="evenodd" fill="rgb(0%, 0%, 0%)" fill-opacity="1" d="M 549.84375 541.890625 C 535.769531 544.578125 525.078125 555.71875 526.757812 571.601562 C 529.253906 595.191406 558.984375 604.101562 574.164062 585.339844 C 577.933594 580.691406 581.261719 572.769531 579.953125 565.371094 C 577.070312 549.058594 562.21875 539.519531 549.84375 541.890625 "/>
<path fill-rule="evenodd" fill="rgb(0%, 0%, 0%)" fill-opacity="1" d="M 700.957031 969.039062 C 701.011719 966.710938 703.117188 964.171875 705.351562 960.320312 L 727.789062 922.328125 C 739.558594 901.800781 752.949219 880.558594 764.289062 860.371094 L 776.34375 839.839844 C 778.550781 835.738281 780.796875 832.261719 783.042969 828.230469 L 796.96875 804.808594 C 801.585938 796.929688 805.5625 789.570312 810.523438 781.691406 L 824.378906 758.21875 C 825.660156 755.808594 826.660156 754.53125 827.890625 752.21875 L 831.277344 746.070312 C 833.652344 742.109375 835.726562 738.738281 838.171875 734.660156 C 843.652344 725.5 854.191406 706.320312 858.996094 699.101562 C 866.84375 687.300781 878.140625 666.058594 886.671875 652.101562 L 907.367188 617.128906 C 909.988281 612.808594 911.566406 609.679688 914.21875 605.671875 C 918.957031 598.480469 925.628906 595.171875 932.300781 601.25 C 934.746094 603.46875 934.59375 603.800781 936.496094 606.578125 L 952.1875 632.988281 C 958.042969 642.378906 967.21875 659.859375 972.757812 668.109375 L 998.574219 712.210938 C 1001.921875 718.011719 1019.359375 748.230469 1022.980469 753.671875 L 1039.898438 782.238281 C 1043.730469 789.179688 1052.671875 804.578125 1057.269531 811.699219 L 1088.109375 864.371094 C 1090.101562 868.25 1092.558594 872.089844 1094.871094 875.949219 L 1107.191406 896.890625 C 1111.339844 903.460938 1115.199219 911.058594 1119.328125 917.339844 L 1143.179688 958.011719 C 1145.269531 961.359375 1149.03125 966.550781 1149.128906 969.039062 L 1203.269531 969.039062 L 1139.199219 860.800781 C 1128.71875 843.109375 1112.800781 817.238281 1103.699219 800.558594 C 1102.269531 797.949219 1090.121094 778.519531 1089.820312 776.480469 C 1092.390625 773.488281 1102.851562 768.238281 1107.089844 765.980469 L 1217.660156 703.390625 C 1219.910156 702.328125 1219.699219 702.070312 1221.871094 700.828125 C 1224.800781 699.160156 1228.109375 697.621094 1230.660156 696.019531 L 1257.351562 680.628906 C 1269.320312 673.800781 1295.109375 658.851562 1305.960938 653.199219 C 1306.828125 652.75 1307.410156 652.550781 1308.21875 652.070312 L 1319.039062 645.921875 C 1320.660156 644.910156 1319.828125 645.179688 1321.488281 644.300781 C 1322.390625 643.820312 1322.921875 643.71875 1323.808594 643.21875 C 1325.75 642.140625 1325.820312 641.648438 1328.019531 640.648438 C 1331.371094 639.121094 1333.488281 637.140625 1338.238281 637.121094 C 1350.390625 637.058594 1349.441406 647.789062 1349.429688 654.261719 C 1349.28125 716.890625 1351.890625 781.730469 1351.878906 845.058594 C 1351.871094 862.839844 1351.851562 882.039062 1352.410156 899.371094 C 1352.980469 917.46875 1352.691406 936.859375 1352.691406 955.058594 C 1352.691406 963.738281 1353.839844 967.460938 1352.449219 969.039062 L 1398.96875 969.039062 C 1398.210938 967.519531 1398.648438 963.96875 1398.648438 955.738281 C 1398.648438 893.710938 1396.609375 830.261719 1396.738281 768.339844 C 1396.78125 752.980469 1396.800781 736.609375 1396.101562 721.480469 C 1395 697.71875 1393.441406 700.351562 1409.238281 687.898438 L 1431.828125 668.410156 C 1436.011719 665.011719 1443.949219 657.199219 1448.949219 656.160156 C 1462.300781 653.398438 1463.03125 672.519531 1464.238281 676.210938 L 1469.019531 695.269531 C 1469.75 699.320312 1470.101562 701.070312 1471.171875 704.640625 C 1474.601562 716.121094 1475.921875 729.25 1480.058594 742.589844 L 1486.910156 771.738281 C 1487.601562 775.628906 1487.960938 777.488281 1489.078125 781.101562 C 1490.140625 784.480469 1490.140625 787.699219 1491.191406 791.21875 L 1502.339844 838.410156 C 1503.761719 847.53125 1509.921875 867.820312 1511.390625 876.960938 L 1517.96875 905.679688 C 1520.339844 914.449219 1522.480469 926.859375 1524.851562 934.101562 L 1529.300781 953.429688 C 1529.839844 957.289062 1530.871094 959.179688 1531.71875 962.53125 C 1532.460938 965.488281 1533.359375 967.769531 1532.539062 969.039062 L 1580.679688 969.039062 C 1579.109375 967.371094 1578.621094 964.011719 1577.410156 957.46875 C 1576.761719 953.980469 1575.519531 951.550781 1574.878906 947.820312 C 1574.191406 943.730469 1573.320312 941.410156 1572.339844 937.511719 L 1565.589844 907.601562 C 1564.679688 901.988281 1562.128906 892.878906 1560.628906 887.460938 C 1558.859375 881.050781 1557.640625 873.839844 1556.289062 867.320312 C 1555.390625 862.988281 1551.308594 850.511719 1552.121094 846.589844 L 1559.289062 816.261719 C 1560.089844 812.308594 1560.238281 809.890625 1561.449219 806.179688 L 1581.671875 715.101562 C 1582.75 711.171875 1583.339844 709.601562 1583.949219 705.179688 C 1584.480469 701.398438 1585.988281 698.449219 1586.53125 694.871094 L 1590.808594 673.980469 C 1591.921875 670.160156 1592.289062 668.199219 1593.078125 663.949219 L 1600.089844 633.679688 C 1601.230469 629.980469 1601.449219 627.519531 1602.238281 623.671875 C 1603.019531 619.839844 1604.171875 617.660156 1604.78125 613.328125 L 1623.78125 533.171875 C 1626.039062 526.550781 1634.011719 495.75 1635.128906 488.710938 C 1646.421875 455.75 1626.089844 419.121094 1580.601562 418.691406 C 1567.371094 418.691406 1551.070312 425.171875 1540.089844 426.980469 C 1536.101562 427.640625 1525.621094 430.179688 1522.128906 431.460938 C 1515.710938 433.808594 1493.371094 438.269531 1486.519531 440.660156 L 1459.601562 447.71875 C 1450.910156 449.609375 1441.421875 452.730469 1432.910156 454.230469 L 1397.210938 463.359375 C 1392.488281 464.289062 1384.390625 466.761719 1379.640625 468.210938 C 1374.359375 469.808594 1367.179688 471.199219 1361.519531 472.46875 C 1356.320312 473.640625 1349.289062 475.898438 1344.011719 477.371094 C 1338.03125 479.039062 1331.539062 480.179688 1325.828125 481.589844 C 1320.28125 482.960938 1294.21875 491.03125 1290.609375 490.191406 C 1288.351562 488.679688 1284.628906 473.261719 1284.160156 471.378906 C 1279.289062 451.609375 1273.339844 432.828125 1268.351562 413.140625 C 1262.300781 389.289062 1238.441406 370.019531 1213.328125 370.019531 C 1202.199219 370.019531 1183.550781 375.960938 1174.699219 384.070312 C 1171.488281 387.011719 1168.898438 389 1165.71875 392.078125 C 1159.96875 397.640625 1154.339844 403.96875 1148.71875 409.019531 L 1122.859375 434.089844 C 1115.199219 441.46875 1065.128906 491.679688 1062.621094 492.808594 C 1055.519531 481.550781 1022.519531 427.558594 1016.300781 415.410156 C 1014.921875 412.710938 1012.949219 409.898438 1011.269531 406.859375 L 1006.300781 398.238281 C 1004.261719 395.089844 1003.191406 392.949219 1001.289062 389.679688 C 994.582031 378.179688 987.644531 366.980469 981.109375 355.539062 L 960.710938 320.929688 C 955.53125 312.550781 951.097656 303.75 945.636719 295.28125 C 944.535156 293.570312 944.136719 292.511719 943.148438 290.980469 C 942.230469 289.558594 941.511719 288.03125 940.660156 286.679688 L 930.246094 269.25 C 920.296875 251.429688 904.414062 237.578125 880.675781 237.578125 C 842.976562 237.578125 824.984375 270.679688 808.304688 299.410156 L 724.519531 441.71875 C 716.007812 455.820312 702.078125 478.371094 694.632812 492.621094 C 693.300781 495.171875 690.8125 501.039062 687.570312 500.328125 C 684.644531 499.691406 661.34375 485.71875 656.660156 483.140625 C 634.621094 471.019531 612.050781 457.429688 589.789062 445.441406 C 578.441406 439.328125 550.699219 423.910156 543.28125 419.308594 C 537.039062 415.441406 523.523438 407.960938 516 406.53125 C 500.898438 403.648438 483.15625 407.089844 471 415.628906 C 469.660156 416.570312 468.050781 418.261719 466.65625 419.421875 C 464.71875 421.03125 463.808594 421.070312 462.023438 422.941406 C 454.316406 430.980469 446.648438 443.128906 446.039062 455.300781 C 445.011719 475.878906 445.1875 498.21875 445.230469 519.148438 C 445.242188 525.058594 444.359375 642.070312 443.476562 645.371094 C 430.640625 643.019531 418.140625 639.519531 405.484375 636.589844 C 403.140625 636.050781 401.328125 634.980469 398.820312 634.410156 L 368.914062 626.988281 C 361.375 624.539062 353.578125 623.320312 346.699219 621.351562 C 344.277344 620.648438 342.574219 619.761719 339.988281 619.269531 C 331.753906 617.71875 323.785156 614.800781 317.890625 613.511719 C 310.308594 611.839844 302.894531 609.648438 294.800781 608.851562 C 240.910156 605.648438 222.289062 646.460938 238.324219 694.421875 C 239.890625 700.171875 241.023438 707.398438 242.804688 713.050781 C 245.234375 720.78125 250.996094 745.679688 252.402344 749.660156 C 254.132812 754.539062 259.425781 777.539062 262.085938 786.128906 C 263.898438 791.980469 265.0625 798.691406 266.550781 804.738281 L 273.953125 831.960938 C 275.042969 835.371094 274.898438 837.96875 276.136719 841.320312 C 277.820312 845.898438 288.792969 889.539062 290.316406 896.410156 C 291.570312 902.078125 293.941406 908.980469 295.367188 914.429688 C 296.996094 920.671875 297.976562 926.988281 299.800781 933.070312 C 300.910156 936.761719 301.480469 938.390625 302.234375 942.25 C 303.707031 949.78125 308.445312 960.320312 308.828125 967.480469 L 308.492188 969.039062 L 356.386719 969.039062 C 356.050781 968.261719 356.054688 966.96875 355.519531 964.941406 C 354.765625 962.058594 354.128906 960.851562 353.503906 957.398438 L 349.703125 942.269531 C 347.191406 934.039062 333.40625 880.519531 332.152344 874.289062 L 318.246094 822.28125 C 314.3125 808.921875 311.328125 791.679688 306.539062 776.980469 C 305.628906 774.160156 305.582031 771.789062 304.878906 769.109375 C 304.28125 766.828125 303.128906 764.71875 302.605469 761.929688 C 301.632812 756.71875 300.242188 751.699219 298.960938 746.578125 C 298.296875 743.921875 297.3125 742.140625 296.738281 739.238281 C 296.222656 736.640625 295.953125 734.738281 295.039062 732.089844 C 293.746094 728.359375 291.847656 720.820312 290.964844 717.171875 L 283.355469 686.761719 C 281.808594 682.160156 280.636719 676.699219 279.230469 671.890625 C 277.300781 665.269531 278.070312 660.511719 281.792969 656.871094 C 287.101562 651.679688 296.9375 655.730469 304.113281 657.859375 C 306.960938 658.699219 309.425781 658.699219 311.976562 659.460938 C 321.125 662.179688 347.527344 668.980469 356.84375 671.011719 L 371.875 674.929688 C 376.195312 676.480469 413.039062 685.339844 417.367188 686.480469 C 422.183594 687.75 427.441406 688.960938 432.242188 690.640625 C 438.199219 692.730469 443.320312 690.109375 443.320312 697.71875 C 443.320312 770.21875 442.375 842.578125 441.980469 915.03125 C 441.945312 921.621094 440.824219 922.320312 437.863281 927.03125 L 428.03125 943.679688 C 423.667969 951.820312 417.84375 961.621094 413.035156 969.039062 L 466.378906 969.039062 C 466.589844 966.960938 470.265625 961.550781 471.597656 959.410156 L 488.238281 931.261719 C 488.714844 930.328125 488.75 930.011719 489.367188 928.988281 C 497.46875 915.601562 505.289062 902.601562 513.039062 888.839844 C 520.710938 875.21875 529.425781 862.078125 536.714844 848.679688 C 540.363281 841.980469 545.019531 835.410156 548.53125 828.601562 C 550.359375 825.058594 552.644531 821.96875 554.609375 818.371094 C 559.617188 809.171875 567.046875 797.570312 572.238281 788.480469 L 619.574219 708.179688 C 620.722656 706.238281 621.09375 705.199219 622.542969 702.988281 C 623.632812 701.320312 624.722656 699.261719 625.539062 697.828125 L 649.257812 657.738281 C 664.460938 638.371094 674.480469 666.359375 681.480469 677.628906 C 689.097656 689.890625 697.28125 705.570312 704.890625 718.050781 C 706.882812 721.308594 708.691406 724.359375 710.59375 727.949219 C 713.46875 733.378906 719.542969 742.511719 722.367188 748.070312 C 724.175781 751.628906 726.183594 754.671875 728.296875 758.460938 L 743.035156 783.800781 C 747.867188 792.921875 751.484375 793.140625 747.097656 799.730469 C 741.433594 808.21875 734.535156 821.789062 729.496094 829.660156 C 724.355469 837.691406 712.980469 858.691406 708.632812 865.140625 C 707.519531 866.789062 707.035156 867.789062 705.847656 869.808594 L 658.613281 950.21875 C 656.246094 954.410156 650.429688 964.519531 647.234375 969.039062 Z M 1065.070312 735.96875 C 1063.371094 730.988281 1039.878906 693.019531 1033.980469 682.21875 C 1028.308594 671.839844 1019.53125 657.949219 1013.148438 646.691406 C 1012.308594 645.210938 1010.890625 642.738281 1009.871094 641.148438 C 1007.378906 637.238281 1005.179688 633.238281 1002.75 629.261719 C 995.785156 617.828125 996.722656 622.210938 1010.328125 608.070312 C 1014.199219 604.058594 1016.960938 601.300781 1019.550781 598.980469 C 1023.109375 595.78125 1025.558594 592.820312 1029.261719 589.660156 C 1035.761719 584.128906 1050.351562 568.640625 1057.308594 562.039062 C 1081.199219 539.398438 1109.5 509.300781 1133.191406 487.859375 C 1136 485.320312 1139.46875 481.550781 1142.589844 478.261719 C 1148.238281 472.28125 1163.691406 457.898438 1170.859375 450.871094 C 1177.328125 444.511719 1183.378906 438.839844 1189.828125 432.488281 C 1194.691406 427.710938 1204.558594 416.121094 1209.980469 415.230469 C 1224.269531 412.890625 1224.261719 427.878906 1227.121094 436.101562 C 1231.628906 449.058594 1236.410156 472.308594 1239.320312 480.191406 L 1271.789062 597.761719 C 1277.390625 618.480469 1280.628906 615.960938 1269.199219 621.851562 L 1214.960938 652.488281 C 1208.359375 656.03125 1199.960938 661.308594 1194.089844 664.210938 C 1191.960938 665.25 1192.769531 664.980469 1191.160156 666.03125 C 1186.828125 668.859375 1166.300781 680.078125 1161.570312 682.609375 C 1154.019531 686.648438 1144.980469 691.898438 1137.808594 696.199219 L 1090.109375 723.191406 C 1085.730469 725.578125 1082.160156 727.898438 1077.890625 729.980469 C 1075.378906 731.199219 1074.378906 731.910156 1071.859375 733.410156 C 1069.53125 734.800781 1068.699219 735.960938 1065.070312 735.96875 Z M 488.65625 839.101562 C 487.703125 835.011719 488.738281 730.980469 488.738281 723.519531 C 488.730469 646.839844 491.300781 569.859375 491.183594 493.339844 C 491.167969 483.859375 490.828125 473.640625 491.234375 464.25 C 491.648438 454.71875 495.421875 448.429688 505.964844 451.171875 C 509.105469 451.988281 540.128906 469.511719 543.316406 471.558594 L 636.355469 523.828125 C 639.484375 525.378906 642.585938 527.699219 645.773438 529.328125 C 655.671875 534.371094 670.476562 543.75 678.433594 547.601562 L 756.929688 591.988281 C 760.164062 593.890625 763.191406 595.191406 766.179688 597.011719 C 776.046875 603.019531 794.660156 612.441406 803.488281 618.058594 L 840.335938 638.878906 L 817.359375 680.550781 C 811.988281 689.960938 781.265625 740.648438 779.269531 744.988281 C 778.425781 746.820312 778.6875 746.761719 777.792969 748.089844 C 771.117188 741.871094 772.578125 744 768.140625 736.261719 C 765.601562 731.828125 763.242188 727.5 760.753906 723.28125 C 758.058594 718.710938 755.546875 714.371094 752.980469 709.988281 L 741.472656 690.269531 C 739.832031 687.5 739.101562 686.289062 737.769531 683.808594 C 736.570312 681.570312 735.429688 679.378906 734.109375 677.269531 C 729.703125 670.21875 712.824219 641.691406 711.011719 637.890625 C 705.96875 627.320312 695.746094 617.519531 684.769531 612.550781 C 673.765625 607.558594 661.34375 605.359375 648.691406 607.640625 C 643.320312 608.609375 637.996094 610.980469 633.558594 612.871094 C 618.304688 619.398438 611.175781 632.878906 603.949219 645.03125 L 581.023438 683.859375 C 577.3125 690.488281 568.578125 704.269531 565.664062 709.949219 L 558.058594 722.691406 C 557.214844 724.058594 556.96875 724.890625 556.152344 726.210938 L 519.894531 787.71875 C 518.660156 789.800781 517.097656 792.25 515.777344 794.46875 L 493.253906 833.070312 C 492.390625 834.621094 492.261719 834.949219 491.398438 836.601562 C 489.738281 839.789062 491.492188 838.308594 488.65625 839.101562 Z M 864.941406 599.058594 C 858.886719 598.539062 821.710938 575.25 813.128906 571.101562 L 771.039062 547.328125 C 765.359375 544.558594 760.074219 540.921875 755.378906 538.550781 L 742.257812 531.28125 C 724.195312 521.171875 728.355469 526.550781 740.410156 504.460938 C 749.988281 486.921875 764.71875 464.910156 773.808594 447.550781 C 774.886719 445.5 774.953125 446.089844 775.988281 444.328125 C 793.492188 414.488281 811.585938 382.671875 829.46875 353.171875 L 842.648438 331.058594 C 849.390625 318.421875 859.003906 303.289062 866.714844 289.910156 C 874.042969 277.199219 884.640625 280.199219 889.839844 289.96875 L 900.90625 308.78125 C 913.050781 330.390625 928.746094 356.398438 941.523438 378.140625 C 946.199219 386.101562 952.238281 395.128906 956.367188 403.378906 L 997.480469 472.929688 C 998.738281 475.03125 999.878906 476.859375 1000.988281 478.921875 L 1023.398438 516.941406 C 1024.578125 518.679688 1024.371094 518.460938 1025.328125 520.429688 C 1026.929688 523.691406 1030.398438 525.019531 1025.589844 529.628906 L 1005.261719 549.359375 C 996.664062 558.539062 988.152344 566.269531 979.675781 574.019531 C 978.589844 575.019531 975.742188 578.679688 974.246094 578.871094 C 971.636719 579.210938 970.425781 575.21875 969.242188 573.808594 C 954.476562 556.160156 924.109375 548.070312 903.714844 557.789062 C 900.78125 559.191406 899.640625 559.269531 896.78125 561.070312 C 875.496094 574.429688 878.390625 579.359375 864.941406 599.058594 Z M 1318.550781 593.929688 C 1317.601562 592.640625 1308.320312 559.238281 1307.710938 555.800781 C 1304.800781 539.261719 1296.171875 535.199219 1310.488281 532.730469 C 1314.910156 531.960938 1316.390625 531.128906 1320.089844 530.191406 L 1378.5 515.28125 C 1384.339844 513.679688 1392.261719 512.550781 1397.710938 510.671875 L 1514.328125 480.699219 C 1526.570312 476.679688 1540.441406 474.671875 1552.46875 470.609375 C 1558.238281 468.671875 1566.03125 467.640625 1572.199219 465.890625 C 1575.871094 464.851562 1578.039062 463.378906 1582.488281 464.300781 C 1594.640625 466.789062 1590.558594 481.589844 1588.539062 489.03125 L 1578.269531 527.679688 C 1577.109375 531.191406 1577.148438 534.058594 1575.921875 537.558594 C 1573.921875 543.230469 1568.609375 569.359375 1566.28125 576.800781 C 1565.28125 579.960938 1565.269531 583.25 1564.339844 586.378906 L 1550.460938 645.761719 C 1548.648438 657.019531 1543.359375 675.289062 1541.550781 685.789062 L 1537.328125 706.039062 C 1535.488281 712.570312 1529.191406 744.050781 1528.328125 745.328125 C 1526.578125 740.5 1524.75 735.738281 1523.910156 730.621094 C 1522.988281 724.988281 1521.558594 721.328125 1520.578125 715.691406 L 1515.070312 693.351562 C 1512.839844 680.71875 1509.25 668.96875 1506.359375 656.570312 C 1505.140625 651.339844 1504.28125 647.148438 1501.738281 642.828125 C 1498.410156 637.148438 1498.210938 636.988281 1494.269531 631.960938 C 1485.511719 620.769531 1462.800781 607.929688 1441.289062 612.050781 C 1428.820312 614.441406 1424.019531 616.738281 1415.328125 622.75 C 1413.808594 623.800781 1411.839844 625.808594 1410.199219 627.089844 C 1406.988281 629.589844 1397.261719 638.71875 1395.070312 639.238281 L 1390.839844 627.449219 C 1383.46875 609.878906 1365.308594 595.691406 1346.289062 592.53125 C 1328.910156 589.648438 1322.78125 595.421875 1318.550781 593.929688 "/>
<path fill-rule="evenodd" fill="rgb(73.242188%, 34.130859%, 19.993591%)" fill-opacity="1" d="M 1564.621094 1119.324219 C 1551 1409.628906 1278.539062 1641.324219 944.378906 1641.324219 C 610.21875 1641.324219 337.765625 1409.628906 324.136719 1119.324219 L 1564.621094 1119.324219 "/>
<path fill-rule="nonzero" fill="rgb(0%, 0%, 0%)" fill-opacity="1" d="M 1588.621094 1120.453125 C 1581.46875 1272.851562 1506.429688 1409.667969 1389.421875 1508.144531 C 1273.679688 1605.558594 1116.859375 1665.417969 944.378906 1665.417969 C 771.902344 1665.417969 615.085938 1605.558594 499.339844 1508.144531 C 382.328125 1409.667969 307.289062 1272.851562 300.136719 1120.453125 L 298.953125 1095.230469 L 1589.808594 1095.230469 Z M 1358.550781 1471.4375 C 1459 1386.902344 1525.589844 1271.820312 1538.738281 1143.417969 L 350.023438 1143.417969 C 363.164062 1271.820312 429.761719 1386.902344 530.210938 1471.4375 C 637.503906 1561.738281 783.410156 1617.230469 944.378906 1617.230469 C 1105.351562 1617.230469 1251.261719 1561.738281 1358.550781 1471.4375 "/>
<path fill-rule="evenodd" fill="rgb(58.789062%, 25.87738%, 17.259216%)" fill-opacity="1" d="M 590.726562 1560.324219 L 1298.03125 1560.324219 L 1383.410156 1690.324219 C 1401.46875 1717.824219 1393.738281 1740.324219 1366.238281 1740.324219 L 522.515625 1740.324219 C 495.015625 1740.324219 487.292969 1717.824219 505.351562 1690.324219 L 590.726562 1560.324219 "/>
<path fill-rule="nonzero" fill="rgb(0%, 0%, 0%)" fill-opacity="1" d="M 590.726562 1536.230469 L 1310.910156 1536.230469 L 1318.078125 1547.148438 L 1403.460938 1677.148438 C 1412.800781 1691.378906 1417.269531 1705.34375 1417.269531 1717.640625 C 1417.269531 1725.289062 1415.578125 1732.488281 1412.300781 1739.015625 C 1408.878906 1745.796875 1403.808594 1751.488281 1397.160156 1755.855469 C 1388.789062 1761.351562 1378.378906 1764.417969 1366.238281 1764.417969 L 522.515625 1764.417969 C 510.378906 1764.417969 499.964844 1761.351562 491.597656 1755.855469 C 484.949219 1751.488281 479.878906 1745.796875 476.464844 1739.015625 C 473.179688 1732.488281 471.496094 1725.289062 471.496094 1717.640625 C 471.496094 1705.34375 475.960938 1691.378906 485.304688 1677.148438 L 570.679688 1547.148438 L 577.847656 1536.230469 Z M 656.035156 1584.417969 L 603.601562 1584.417969 L 525.398438 1703.5 C 522.066406 1708.578125 520.230469 1712.855469 519.789062 1716.140625 C 520.503906 1716.199219 521.410156 1716.230469 522.515625 1716.230469 L 1366.238281 1716.230469 C 1367.351562 1716.230469 1368.261719 1716.199219 1368.96875 1716.140625 C 1368.53125 1712.855469 1366.691406 1708.578125 1363.359375 1703.5 L 1285.160156 1584.417969 L 656.035156 1584.417969 "/>
<path fill-rule="evenodd" fill="rgb(58.789062%, 25.87738%, 17.259216%)" fill-opacity="1" d="M 285.378906 981.320312 L 1603.378906 981.320312 C 1617.128906 981.320312 1628.378906 992.570312 1628.378906 1006.324219 L 1628.378906 1100.324219 C 1628.378906 1114.074219 1617.128906 1125.324219 1603.378906 1125.324219 L 285.378906 1125.324219 C 271.628906 1125.324219 260.378906 1114.074219 260.378906 1100.324219 L 260.378906 1006.324219 C 260.378906 992.570312 271.628906 981.320312 285.378906 981.320312 "/>
<path fill-rule="nonzero" fill="rgb(0%, 0%, 0%)" fill-opacity="1" d="M 285.378906 957.230469 L 1603.378906 957.230469 C 1616.910156 957.230469 1629.191406 962.75 1638.070312 971.628906 C 1646.960938 980.519531 1652.46875 992.800781 1652.46875 1006.324219 L 1652.46875 1100.324219 C 1652.46875 1113.851562 1646.960938 1126.128906 1638.070312 1135.015625 C 1629.191406 1143.902344 1616.910156 1149.417969 1603.378906 1149.417969 L 285.378906 1149.417969 C 271.855469 1149.417969 259.574219 1143.902344 250.6875 1135.015625 C 241.800781 1126.128906 236.285156 1113.851562 236.285156 1100.324219 L 236.285156 1006.324219 C 236.285156 992.800781 241.800781 980.519531 250.6875 971.628906 C 259.574219 962.75 271.855469 957.230469 285.378906 957.230469 Z M 1603.378906 1005.417969 L 285.378906 1005.417969 C 285.15625 1005.417969 284.933594 1005.527344 284.757812 1005.703125 C 284.585938 1005.878906 284.476562 1006.101562 284.476562 1006.324219 L 284.476562 1100.324219 C 284.476562 1100.546875 284.585938 1100.769531 284.757812 1100.945312 C 284.933594 1101.121094 285.15625 1101.230469 285.378906 1101.230469 L 1603.378906 1101.230469 C 1603.601562 1101.230469 1603.828125 1101.121094 1604 1100.945312 C 1604.179688 1100.769531 1604.289062 1100.546875 1604.289062 1100.324219 L 1604.289062 1006.324219 C 1604.289062 1006.101562 1604.179688 1005.878906 1604 1005.703125 C 1603.828125 1005.527344 1603.601562 1005.417969 1603.378906 1005.417969 "/>
<path fill-rule="evenodd" fill="rgb(0%, 0%, 0%)" fill-opacity="1" d="M 1688.25 1483.59375 C 1691.988281 1483.59375 1692.511719 1483.574219 1692.210938 1487.316406 C 1691.710938 1493.347656 1689.621094 1499.386719 1688.839844 1507.535156 L 1675.570312 1587.550781 C 1672.089844 1604.660156 1669.179688 1623.519531 1666.679688 1640.867188 C 1665.738281 1647.378906 1662.371094 1659.976562 1659.789062 1665.132812 C 1652.910156 1678.914062 1650.558594 1681.890625 1640.089844 1692.828125 C 1638.351562 1694.652344 1638.058594 1694.921875 1636.058594 1696.578125 C 1634.039062 1698.257812 1633.789062 1698.199219 1631.480469 1699.785156 C 1620.839844 1707.105469 1612.03125 1710.886719 1599.058594 1714.035156 C 1595.039062 1715.011719 1589.050781 1715.101562 1584.898438 1715.277344 C 1574.878906 1715.695312 1564 1715.3125 1553.890625 1715.3125 L 1304.261719 1715.3125 C 1294.070312 1715.3125 1283.300781 1715.671875 1273.230469 1715.28125 C 1257.210938 1714.65625 1253.710938 1712.660156 1241.609375 1708.152344 C 1237.480469 1706.617188 1230.519531 1701.71875 1226.96875 1699.480469 C 1208.691406 1687.941406 1195.199219 1663.609375 1192.328125 1639.960938 C 1191.761719 1635.335938 1190.441406 1631.332031 1189.820312 1627.027344 L 1185.71875 1600.011719 C 1185.011719 1595.367188 1183.710938 1591.730469 1183.210938 1586.859375 C 1182.210938 1577.140625 1177.738281 1556.761719 1176.738281 1546.738281 C 1176.25 1541.867188 1174.878906 1538.199219 1174.179688 1533.710938 C 1172.730469 1524.535156 1171.589844 1515.863281 1170.121094 1506.601562 C 1169.398438 1502.019531 1168.101562 1498.3125 1167.578125 1493.53125 C 1166.96875 1487.84375 1164.261719 1483.59375 1170.601562 1483.59375 Z M 1167.96875 1435.453125 C 1167.128906 1434.425781 1166.949219 1436.992188 1167.210938 1432.84375 C 1167.558594 1427.230469 1180.910156 1411.191406 1186.851562 1406.433594 C 1194.949219 1399.953125 1192.519531 1401.429688 1203.96875 1398.796875 C 1217.699219 1395.636719 1244.550781 1394.050781 1257.441406 1401.640625 C 1267.160156 1407.359375 1276.929688 1407.445312 1285.121094 1400.742188 C 1296.011719 1391.835938 1297.71875 1377.519531 1288.808594 1366.726562 C 1284.851562 1361.9375 1280.160156 1360.457031 1273.441406 1357.339844 C 1257.859375 1350.101562 1238.199219 1348.199219 1220.101562 1349.207031 C 1216.179688 1349.425781 1210.890625 1350.652344 1211.070312 1346.523438 C 1211.300781 1341.488281 1219.609375 1327.898438 1224.230469 1322.183594 C 1234.371094 1309.621094 1246.621094 1302.742188 1262 1299.105469 C 1270.578125 1297.074219 1274.800781 1296.5625 1283.820312 1297.191406 C 1293.191406 1297.84375 1315.25 1303.8125 1322.828125 1307.242188 C 1327.289062 1309.265625 1339.089844 1312.558594 1341.320312 1313.515625 L 1354.75 1319.15625 C 1372.769531 1327.566406 1397.5 1354.742188 1404.921875 1372.964844 C 1413.929688 1395.09375 1442.921875 1390.765625 1448.96875 1373.652344 C 1452.179688 1364.570312 1451.179688 1363.019531 1448.679688 1353.925781 C 1447.519531 1349.6875 1443.121094 1340.273438 1440.988281 1336.875 C 1439.230469 1334.042969 1438 1331.957031 1436.371094 1329.46875 C 1434.609375 1326.78125 1431.839844 1325.332031 1431.660156 1322.28125 L 1475.460938 1308.949219 C 1478.308594 1308.328125 1478.550781 1307.796875 1481.191406 1306.875 L 1498.039062 1302.496094 C 1528.410156 1296.691406 1527.820312 1294.292969 1560.609375 1299.972656 C 1564.550781 1300.652344 1578.089844 1305.242188 1581.800781 1307.109375 C 1585.238281 1308.839844 1588.050781 1310.398438 1591.101562 1311.949219 C 1595.320312 1314.097656 1600.148438 1317.550781 1604.101562 1320.167969 C 1606.199219 1321.558594 1606.929688 1321.414062 1607.46875 1323.730469 L 1590.28125 1329.660156 C 1583.410156 1332.199219 1580.300781 1333.65625 1574.289062 1337.011719 C 1561.558594 1344.117188 1541.730469 1361.21875 1548.78125 1379.03125 C 1553.75 1391.574219 1568.851562 1397.546875 1579.511719 1392.476562 C 1587.21875 1388.8125 1590.71875 1384 1596.359375 1380.339844 C 1604.671875 1374.945312 1614.238281 1369.433594 1624.941406 1368.484375 C 1634.019531 1367.683594 1647.800781 1368.824219 1655.339844 1372.859375 C 1657.828125 1374.191406 1660.839844 1375.164062 1662.941406 1376.617188 C 1665.878906 1378.664062 1667.460938 1379.570312 1670.050781 1381.507812 C 1685.21875 1392.902344 1698.929688 1417.421875 1696.460938 1435.171875 C 1607.96875 1436.296875 1520.78125 1436.003906 1432.25 1436.003906 C 1422.640625 1436.003906 1170.421875 1437.078125 1167.96875 1435.453125 Z M 1767.230469 1451.714844 C 1766.410156 1449.753906 1760.050781 1440.640625 1752.730469 1437.425781 C 1750.238281 1436.328125 1747.410156 1436.921875 1745.441406 1435.550781 C 1742.929688 1433.808594 1740.519531 1419.027344 1738.878906 1413.808594 C 1736.75 1407.09375 1733.871094 1399.636719 1730.988281 1393.414062 C 1723.269531 1376.761719 1721.371094 1372.65625 1710.261719 1358.269531 C 1694.929688 1338.414062 1676.148438 1330.660156 1674.171875 1328.582031 C 1673.019531 1327.375 1671.46875 1325.054688 1670.101562 1323.449219 C 1659.320312 1310.804688 1645.460938 1297.351562 1631.359375 1287.226562 L 1620.199219 1279.296875 C 1601.769531 1266.300781 1575.671875 1255.632812 1554.25 1251.828125 C 1527.519531 1247.085938 1512.460938 1250.371094 1487.359375 1255.058594 L 1457.261719 1262.429688 C 1439.191406 1268.003906 1417.550781 1276.667969 1398.011719 1278.125 C 1383.601562 1279.199219 1366.230469 1271.953125 1351.980469 1267.519531 L 1338.261719 1262.785156 C 1325.761719 1257.960938 1289.980469 1248.9375 1276.671875 1249.355469 C 1267.210938 1249.652344 1252.148438 1251.324219 1244.089844 1254.324219 C 1241.179688 1255.402344 1239.140625 1255.171875 1236.28125 1256.386719 C 1224.828125 1261.257812 1215.828125 1264.800781 1205.558594 1272.367188 C 1193.339844 1281.363281 1186.628906 1288.527344 1177.730469 1300.40625 C 1167.929688 1313.472656 1158.78125 1335.921875 1158.75 1356.234375 C 1158.738281 1362.121094 1160.011719 1367.625 1160.730469 1373.226562 C 1161.710938 1380.90625 1157.929688 1380.441406 1152.988281 1383.894531 C 1147.769531 1387.542969 1138.640625 1397.480469 1134.191406 1402.5625 C 1130.488281 1406.789062 1122.960938 1420.058594 1120.570312 1426.464844 C 1117.988281 1433.40625 1119.730469 1435.859375 1111.421875 1436.394531 C 1106.039062 1436.742188 1101.679688 1439.296875 1098.769531 1442.121094 C 1090.5 1450.164062 1089.03125 1462.75 1093.460938 1470.179688 C 1101.929688 1484.371094 1111.898438 1481.855469 1116.851562 1484.257812 L 1133.480469 1578.675781 C 1136.75 1594.15625 1146.039062 1656.402344 1148.671875 1665.347656 C 1154.289062 1684.453125 1166.171875 1706.96875 1178 1718.746094 L 1187.601562 1728.238281 C 1193.851562 1734.859375 1206.269531 1743.035156 1214.550781 1747.285156 C 1236.609375 1758.597656 1252.671875 1762.941406 1281.628906 1762.902344 L 1576.519531 1762.902344 C 1611 1762.929688 1634.808594 1755.511719 1660.820312 1736.902344 C 1663.738281 1734.816406 1668.789062 1730.984375 1670.941406 1728.640625 L 1680.148438 1719.472656 C 1682.730469 1717.046875 1686.199219 1712.003906 1688.628906 1708.835938 C 1712.539062 1677.667969 1712.128906 1648.941406 1719.789062 1611.230469 C 1721.839844 1601.097656 1722.578125 1589.714844 1724.710938 1579.421875 L 1738.058594 1500.839844 C 1739.339844 1495.449219 1739.359375 1489.628906 1740.480469 1484.8125 L 1757.289062 1479.039062 C 1762.761719 1476.171875 1764.21875 1471.410156 1765.179688 1469.921875 C 1766.890625 1467.296875 1766.261719 1469.824219 1767.230469 1467.277344 L 1767.230469 1451.714844 "/>
<path fill-rule="evenodd" fill="rgb(60.351562%, 37.646484%, 36.083984%)" fill-opacity="1" d="M 1638.628906 1582.566406 C 1638.628906 1587.234375 1636.808594 1593.089844 1636.289062 1598.609375 L 1628.558594 1645.164062 C 1626.988281 1651.871094 1627.171875 1653.792969 1623.96875 1659.039062 C 1618.53125 1667.984375 1608.570312 1671.046875 1598.398438 1668.890625 C 1588.628906 1666.824219 1583.488281 1659.449219 1580.910156 1650.242188 C 1579.390625 1644.824219 1581.371094 1640.457031 1582.230469 1634.894531 C 1583.609375 1626.101562 1590.839844 1577.800781 1592.789062 1573.410156 C 1595.910156 1566.425781 1604.558594 1558.660156 1614 1558.660156 C 1619.980469 1558.660156 1628.050781 1561.792969 1631.980469 1566.015625 C 1635.191406 1569.476562 1638.628906 1576.09375 1638.628906 1582.566406 Z M 1688.25 1483.59375 L 1170.601562 1483.59375 C 1164.261719 1483.59375 1166.96875 1487.84375 1167.578125 1493.53125 C 1168.101562 1498.3125 1169.398438 1502.019531 1170.121094 1506.601562 C 1171.589844 1515.863281 1172.730469 1524.535156 1174.179688 1533.710938 C 1174.878906 1538.199219 1176.25 1541.867188 1176.738281 1546.738281 C 1177.738281 1556.761719 1182.210938 1577.140625 1183.210938 1586.859375 C 1183.710938 1591.730469 1185.011719 1595.367188 1185.71875 1600.011719 L 1189.820312 1627.027344 C 1190.441406 1631.332031 1191.761719 1635.335938 1192.328125 1639.960938 C 1195.199219 1663.609375 1208.691406 1687.941406 1226.96875 1699.480469 C 1230.519531 1701.71875 1237.480469 1706.617188 1241.609375 1708.152344 C 1253.710938 1712.660156 1257.210938 1714.65625 1273.230469 1715.28125 C 1283.300781 1715.671875 1294.070312 1715.3125 1304.261719 1715.3125 L 1553.890625 1715.3125 C 1564 1715.3125 1574.878906 1715.695312 1584.898438 1715.277344 C 1589.050781 1715.101562 1595.039062 1715.011719 1599.058594 1714.035156 C 1612.03125 1710.886719 1620.839844 1707.105469 1631.480469 1699.785156 C 1633.789062 1698.199219 1634.039062 1698.257812 1636.058594 1696.578125 C 1638.058594 1694.921875 1638.351562 1694.652344 1640.089844 1692.828125 C 1650.558594 1681.890625 1652.910156 1678.914062 1659.789062 1665.132812 C 1662.371094 1659.976562 1665.738281 1647.378906 1666.679688 1640.867188 C 1669.179688 1623.519531 1672.089844 1604.660156 1675.570312 1587.550781 L 1688.839844 1507.535156 C 1689.621094 1499.386719 1691.710938 1493.347656 1692.210938 1487.316406 C 1692.511719 1483.574219 1691.988281 1483.59375 1688.25 1483.59375 "/>
<path fill-rule="evenodd" fill="rgb(84.764099%, 25.097656%, 16.088867%)" fill-opacity="1" d="M 1167.96875 1435.453125 C 1170.421875 1437.078125 1422.640625 1436.003906 1432.25 1436.003906 C 1520.78125 1436.003906 1607.96875 1436.296875 1696.460938 1435.171875 C 1698.929688 1417.421875 1685.21875 1392.902344 1670.050781 1381.507812 C 1667.460938 1379.570312 1665.878906 1378.664062 1662.941406 1376.617188 C 1660.839844 1375.164062 1657.828125 1374.191406 1655.339844 1372.859375 C 1647.800781 1368.824219 1634.019531 1367.683594 1624.941406 1368.484375 C 1614.238281 1369.433594 1604.671875 1374.945312 1596.359375 1380.339844 C 1590.71875 1384 1587.21875 1388.8125 1579.511719 1392.476562 C 1568.851562 1397.546875 1553.75 1391.574219 1548.78125 1379.03125 C 1541.730469 1361.21875 1561.558594 1344.117188 1574.289062 1337.011719 C 1580.300781 1333.65625 1583.410156 1332.199219 1590.28125 1329.660156 L 1607.46875 1323.730469 C 1606.929688 1321.414062 1606.199219 1321.558594 1604.101562 1320.167969 C 1600.148438 1317.550781 1595.320312 1314.097656 1591.101562 1311.949219 C 1588.050781 1310.398438 1585.238281 1308.839844 1581.800781 1307.109375 C 1578.089844 1305.242188 1564.550781 1300.652344 1560.609375 1299.972656 C 1527.820312 1294.292969 1528.410156 1296.691406 1498.039062 1302.496094 L 1481.191406 1306.875 C 1478.550781 1307.796875 1478.308594 1308.328125 1475.460938 1308.949219 L 1431.660156 1322.28125 C 1431.839844 1325.332031 1434.609375 1326.78125 1436.371094 1329.46875 C 1438 1331.957031 1439.230469 1334.042969 1440.988281 1336.875 C 1443.121094 1340.273438 1447.519531 1349.6875 1448.679688 1353.925781 C 1451.179688 1363.019531 1452.179688 1364.570312 1448.96875 1373.652344 C 1442.921875 1390.765625 1413.929688 1395.09375 1404.921875 1372.964844 C 1397.5 1354.742188 1372.769531 1327.566406 1354.75 1319.15625 L 1341.320312 1313.515625 C 1339.089844 1312.558594 1327.289062 1309.265625 1322.828125 1307.242188 C 1315.25 1303.8125 1293.191406 1297.84375 1283.820312 1297.191406 C 1274.800781 1296.5625 1270.578125 1297.074219 1262 1299.105469 C 1246.621094 1302.742188 1234.371094 1309.621094 1224.230469 1322.183594 C 1219.609375 1327.898438 1211.300781 1341.488281 1211.070312 1346.523438 C 1210.890625 1350.652344 1216.179688 1349.425781 1220.101562 1349.207031 C 1238.199219 1348.199219 1257.859375 1350.101562 1273.441406 1357.339844 C 1280.160156 1360.457031 1284.851562 1361.9375 1288.808594 1366.726562 C 1297.71875 1377.519531 1296.011719 1391.835938 1285.121094 1400.742188 C 1276.929688 1407.445312 1267.160156 1407.359375 1257.441406 1401.640625 C 1244.550781 1394.050781 1217.699219 1395.636719 1203.96875 1398.796875 C 1192.519531 1401.429688 1194.949219 1399.953125 1186.851562 1406.433594 C 1180.910156 1411.191406 1167.558594 1427.230469 1167.210938 1432.84375 C 1166.949219 1436.992188 1167.128906 1434.425781 1167.96875 1435.453125 "/>
<path fill-rule="evenodd" fill="rgb(0%, 0%, 0%)" fill-opacity="1" d="M 1638.628906 1582.566406 C 1638.628906 1576.09375 1635.191406 1569.476562 1631.980469 1566.015625 C 1628.050781 1561.792969 1619.980469 1558.660156 1614 1558.660156 C 1604.558594 1558.660156 1595.910156 1566.425781 1592.789062 1573.410156 C 1590.839844 1577.800781 1583.609375 1626.101562 1582.230469 1634.894531 C 1581.371094 1640.457031 1579.390625 1644.824219 1580.910156 1650.242188 C 1583.488281 1659.449219 1588.628906 1666.824219 1598.398438 1668.890625 C 1608.570312 1671.046875 1618.53125 1667.984375 1623.96875 1659.039062 C 1627.171875 1653.792969 1626.988281 1651.871094 1628.558594 1645.164062 L 1636.289062 1598.609375 C 1636.808594 1593.089844 1638.628906 1587.234375 1638.628906 1582.566406 "/>
<path fill-rule="evenodd" fill="rgb(94.139099%, 41.184998%, 21.946716%)" fill-opacity="1" d="M 1295.539062 1321.664062 C 1310.03125 1321.664062 1321.789062 1326.03125 1321.789062 1331.414062 C 1321.789062 1336.800781 1310.03125 1341.164062 1295.539062 1341.164062 C 1281.039062 1341.164062 1269.289062 1336.800781 1269.289062 1331.414062 C 1269.289062 1326.03125 1281.039062 1321.664062 1295.539062 1321.664062 "/>
<path fill-rule="evenodd" fill="rgb(94.139099%, 41.184998%, 21.946716%)" fill-opacity="1" d="M 1325.101562 1403.609375 C 1338.199219 1397.386719 1350.691406 1396.289062 1353 1401.152344 C 1355.308594 1406.019531 1346.570312 1415.003906 1333.46875 1421.222656 C 1320.371094 1427.441406 1307.890625 1428.539062 1305.578125 1423.675781 C 1303.269531 1418.8125 1312.011719 1409.828125 1325.101562 1403.609375 "/>
<path fill-rule="evenodd" fill="rgb(94.139099%, 41.184998%, 21.946716%)" fill-opacity="1" d="M 1487.851562 1324.109375 C 1500.949219 1317.886719 1513.441406 1316.789062 1515.75 1321.652344 C 1518.058594 1326.519531 1509.320312 1335.503906 1496.21875 1341.722656 C 1483.121094 1347.941406 1470.640625 1349.039062 1468.328125 1344.175781 C 1466.019531 1339.3125 1474.761719 1330.328125 1487.851562 1324.109375 "/>
<path fill-rule="evenodd" fill="rgb(94.139099%, 41.184998%, 21.946716%)" fill-opacity="1" d="M 1229.460938 1411.113281 C 1243.101562 1416.011719 1252.691406 1424.089844 1250.871094 1429.15625 C 1249.050781 1434.226562 1236.511719 1434.363281 1222.871094 1429.46875 C 1209.21875 1424.570312 1199.640625 1416.488281 1201.460938 1411.421875 C 1203.269531 1406.355469 1215.808594 1406.214844 1229.460938 1411.113281 "/>
<path fill-rule="evenodd" fill="rgb(94.139099%, 41.184998%, 21.946716%)" fill-opacity="1" d="M 1348.710938 1357.113281 C 1362.351562 1362.011719 1371.941406 1370.089844 1370.121094 1375.15625 C 1368.300781 1380.226562 1355.761719 1380.363281 1342.121094 1375.46875 C 1328.46875 1370.570312 1318.890625 1362.488281 1320.710938 1357.421875 C 1322.519531 1352.355469 1335.058594 1352.214844 1348.710938 1357.113281 "/>
<path fill-rule="evenodd" fill="rgb(94.139099%, 41.184998%, 21.946716%)" fill-opacity="1" d="M 1647.488281 1397.148438 C 1661.128906 1402.046875 1670.71875 1410.125 1668.898438 1415.191406 C 1667.078125 1420.261719 1654.539062 1420.398438 1640.898438 1415.503906 C 1627.25 1410.605469 1617.671875 1402.523438 1619.480469 1397.457031 C 1621.300781 1392.390625 1633.839844 1392.25 1647.488281 1397.148438 "/>
<path fill-rule="evenodd" fill="rgb(94.139099%, 41.184998%, 21.946716%)" fill-opacity="1" d="M 1504.988281 1369.398438 C 1518.628906 1374.296875 1528.21875 1382.375 1526.398438 1387.441406 C 1524.578125 1392.511719 1512.039062 1392.648438 1498.398438 1387.75 C 1484.75 1382.855469 1475.171875 1374.773438 1476.980469 1369.707031 C 1478.800781 1364.636719 1491.339844 1364.5 1504.988281 1369.398438 "/>
<path fill-rule="evenodd" fill="rgb(94.139099%, 41.184998%, 21.946716%)" fill-opacity="1" d="M 1432.238281 1402.398438 C 1445.878906 1407.296875 1455.46875 1415.375 1453.648438 1420.441406 C 1451.828125 1425.511719 1439.289062 1425.648438 1425.648438 1420.753906 C 1412 1415.855469 1402.421875 1407.773438 1404.230469 1402.707031 C 1406.050781 1397.640625 1418.589844 1397.5 1432.238281 1402.398438 "/>
<path fill-rule="evenodd" fill="rgb(94.139099%, 41.184998%, 21.946716%)" fill-opacity="1" d="M 1520.839844 1405.179688 C 1534.808594 1401.308594 1547.300781 1402.378906 1548.738281 1407.566406 C 1550.179688 1412.757812 1540.019531 1420.101562 1526.039062 1423.972656 C 1512.070312 1427.839844 1499.578125 1426.773438 1498.140625 1421.582031 C 1496.710938 1416.394531 1506.871094 1409.050781 1520.839844 1405.179688 "/>
</svg>
